<?xml version="1.0" standalone="no"?>
<!DOCTYPE svg PUBLIC "-//W3C//DTD SVG 20010904//EN"
 "http://www.w3.org/TR/2001/REC-SVG-20010904/DTD/svg10.dtd">
<svg version="1.0" xmlns="http://www.w3.org/2000/svg"
 width="762.000000pt" height="762.000000pt" viewBox="0 0 762.000000 762.000000"
 preserveAspectRatio="xMidYMid meet">
<metadata>
Created by potrace 1.11, written by Peter Selinger 2001-2013
</metadata>
<g transform="translate(0.000000,762.000000) scale(0.100000,-0.100000)"
fill="#000000" stroke="none">
<path d="M3435 7565 c-1550 -170 -2826 -1247 -3250 -2745 -30 -105 -69 -285
-90 -407 -61 -363 -61 -873 0 -1236 246 -1460 1294 -2630 2715 -3032 334 -94
642 -135 1025 -135 456 0 809 57 1225 198 403 137 897 405 1046 569 12 13 24
23 28 23 4 0 13 6 20 13 20 19 63 50 72 51 9 1 174 157 312 296 203 203 381
438 534 702 29 50 59 93 68 95 24 6 148 261 145 298 -1 17 9 59 23 95 59 158
123 359 161 511 32 125 47 169 65 185 19 17 26 43 44 160 34 220 42 329 42
593 0 245 -14 427 -45 614 -246 1460 -1294 2630 -2715 3032 -193 54 -419 97
-637 120 -172 18 -620 18 -788 0z"/>
</g>
</svg>
