<svg id="villas-individuelles"version="1.1" xmlns="http://www.w3.org/2000/svg" xmlns:xlink="http://www.w3.org/1999/xlink" x="0px" y="0px"
    viewBox="0 0 1200 675" enable-background="new 0 0 1200 675" xml:space="preserve">


    <g  id="villa34">
        <polygon fill="#b2bf56" points="1004.5,390 1004.001,337.869 746,339.248 746,397.039 1074,397.5 1074,393"/>
    </g>
    <g  id="villa16">
        <polygon fill="#b2bf56" points="746,339.248 617,339.938 617,396.857 746,397.039"/>
    </g>
    <g  id="villa18">
        <polygon fill="#b2bf56" points="487,340.633 192.001,342.21 192.001,368 235.25,368 235.25,390.75 184.5,393.25 184.5,396.25
            487,396.675"/>
        </g>
        <g  id="villa20">
            <polygon fill="#b2bf56" points="487,396.675 617,396.857 617,339.938 487,340.633"/>
        </g>


        <g  id="villa22">
            <polygon fill="#b2bf56" points="746,278.75 617,278.75 617,339.938 746,339.248"/>
        </g>
        <g  id="villa24">
            <polygon fill="#b2bf56" points="487,278.75 235.75,278.75 235.75,311.25 191.25,311.25 191.25,331.25 184.5,331.25 184.5,342.25
                487,340.633"/>
            </g>
            <g  id="villa26">
                <polygon fill="#b2bf56" points="487,340.633 617,339.938 617,278.75 487,278.75"/>
            </g>
            <g  id="villa28">
                <polygon fill="#b2bf56" points="1003.75,310.5 1003.25,278.75 746,278.75 746,339.248 1073,337.5 1074,310.5"/>
            </g>


            <g  id="villa30">
                <polygon fill="#b2bf56" points="975.25,245.375 975.25,229 1016.5,224.75 1016.5,221.5 1021.75,221.25 1021.75,216.75
                    975.5,216.75 975.5,212 617,214.256 617,278.75 1073,278.75 1073,245.375"/>
                </g>
                <g  id="villa32">
                    <polygon fill="#b2bf56" points="617,214.256 260.5,216.5 260.5,219.75 196.25,219.75 196.5,221.5 261.75,229 261.75,248.5
                        190.5,248.5 190.5,269.25 184.5,269.25 184.5,278.75 617,278.75"/>
                    </g>

                </svg>
