<svg version="1.1" xmlns="http://www.w3.org/2000/svg" xmlns:xlink="http://www.w3.org/1999/xlink" x="0px" y="0px"
	 viewBox="0 0 6859.999 3430" enable-background="new 0 0 6859.999 3430" xml:space="preserve" id="villas-individuelles">
<g id="Layer_3">
	<rect x="57.167" y="35.729" fill="#FEFEFE" width="493.062" height="271.542"/>
	<rect fill="none" width="6859.999" height="3430"/>
</g>
<g id="villa16">
	<path fill="rgba(187, 159, 121, 0.8)" d="M4766.277,2770.203"/>
	<polygon fill="rgba(187, 159, 121, 0.8)" points="4711.672,2635.807 4735.906,2329.542 4718.043,2320.016 4724.289,2262.996 4571.1,2191.538 
		4572.439,2152.235 4424.764,2086.269 4425.964,2029.996 4166.02,1917.763 3914.688,2046.722 3904.416,2382.465 4016.852,2437.922 
		4011.199,2565.361 4467.484,2796.253 	"/>

		<path fill="#FFFFFF" d="M4152.499,2056.214c-0.625-0.615-1.376-1.086-2.252-1.407c-0.876-0.322-1.841-0.483-2.896-0.483
			s-2.011,0.18-2.868,0.537c-0.858,0.357-1.591,0.854-2.198,1.489c-0.608,0.633-1.082,1.384-1.421,2.25
			c-0.341,0.868-0.51,1.801-0.51,2.803c0,1.073,0.147,2.05,0.442,2.936c0.295,0.885,0.732,1.64,1.313,2.266
			c0.581,0.625,1.301,1.112,2.158,1.46c0.858,0.349,1.85,0.523,2.976,0.523c1.055,0,2.024-0.178,2.909-0.536
			c0.885-0.356,1.644-0.858,2.279-1.501c0.634-0.644,1.13-1.399,1.487-2.266s0.537-1.809,0.537-2.828c0-1.109-0.171-2.105-0.51-2.99
			C4153.607,2057.583,4153.125,2056.832,4152.499,2056.214z"/>
		<path fill="#FFFFFF" d="M4132.62,2000.759c-29.614,0-53.62,24.006-53.62,53.62s24.006,53.62,53.62,53.62
			c29.615,0,53.62-24.006,53.62-53.62S4162.235,2000.759,4132.62,2000.759z M4128.396,2073.575h-21.447v-4.96h7.855v-22.601
			c0-0.894,0.027-1.814,0.08-2.762l-5.576,4.665c-0.321,0.249-0.639,0.406-0.951,0.469c-0.313,0.062-0.608,0.067-0.886,0.014
			c-0.276-0.054-0.522-0.148-0.736-0.282c-0.215-0.133-0.376-0.281-0.483-0.442l-2.091-2.868l11.823-10.054h5.442v33.861h6.97
			V2073.575z M4160.087,2066.053c-0.662,1.583-1.591,2.964-2.789,4.143c-1.197,1.181-2.641,2.109-4.329,2.788
			c-1.689,0.679-3.553,1.02-5.59,1.02c-2.074,0-3.933-0.331-5.577-0.992s-3.047-1.586-4.209-2.774s-2.051-2.618-2.667-4.289
			c-0.617-1.673-0.926-3.525-0.926-5.564c0-1.822,0.371-3.695,1.112-5.616c0.742-1.922,1.891-3.918,3.446-5.993l9.249-12.411
			c0.321-0.43,0.791-0.797,1.407-1.1c0.617-0.305,1.328-0.456,2.131-0.456h5.899l-11.502,14.074l-1.341,1.663
			c0.751-0.375,1.56-0.666,2.427-0.871c0.866-0.205,1.8-0.308,2.802-0.308c1.465,0,2.891,0.24,4.276,0.723
			c1.385,0.483,2.604,1.212,3.659,2.186s1.904,2.186,2.547,3.633c0.644,1.447,0.965,3.137,0.965,5.067
			C4161.078,2062.779,4160.748,2064.472,4160.087,2066.053z"/>

</g>
<g id="villa18">
	<polygon fill="rgba(187, 159, 121, 0.8)" points="4931.518,2490.769 4959.207,2187.518 4943.576,2179.925 4946.703,2129.458 4796.193,2062.465 
		4798.873,2019.59 4652.537,1963.317 4656.402,1901.238 4395.881,1797.77 4165.127,1917.316 4425.504,2029.417 4424.764,2086.269 
		4572.439,2152.235 4571.1,2191.538 4724.289,2262.996 4718.043,2320.016 4735.906,2329.542 4711.672,2635.807 	"/>

		<path fill="#FFFFFF" d="M4408.459,1903.31c-2.074,0-3.7,0.546-4.88,1.636c-1.179,1.09-1.77,2.698-1.77,4.825
			c0,0.894,0.144,1.725,0.429,2.493c0.286,0.77,0.711,1.431,1.273,1.984c0.564,0.554,1.256,0.987,2.078,1.3
			c0.822,0.313,1.778,0.469,2.869,0.469c1.09,0,2.047-0.155,2.869-0.469c0.821-0.312,1.514-0.746,2.076-1.3
			c0.564-0.554,0.988-1.215,1.274-1.984c0.285-0.769,0.429-1.6,0.429-2.493c0-2.127-0.59-3.735-1.77-4.825
			S4410.531,1903.31,4408.459,1903.31z"/>
		<path fill="#FFFFFF" d="M4403.981,1896.246c0.446,0.563,1.036,1.014,1.77,1.354c0.732,0.34,1.636,0.51,2.708,0.51
			s1.975-0.17,2.707-0.51c0.733-0.34,1.322-0.79,1.77-1.354s0.765-1.207,0.952-1.93c0.188-0.725,0.282-1.471,0.282-2.239
			c0-0.733-0.117-1.43-0.35-2.091s-0.581-1.248-1.045-1.757c-0.465-0.51-1.055-0.916-1.77-1.22s-1.564-0.456-2.547-0.456
			c-0.983,0-1.832,0.152-2.547,0.456s-1.31,0.71-1.783,1.22c-0.475,0.509-0.822,1.096-1.046,1.757s-0.335,1.357-0.335,2.091
			c0,0.769,0.094,1.515,0.281,2.239C4403.218,1895.039,4403.534,1895.682,4403.981,1896.246z"/>
		<path fill="#FFFFFF" d="M4393.619,1847.759c-29.613,0-53.619,24.006-53.619,53.62c0,29.615,24.006,53.62,53.619,53.62
			c29.615,0,53.621-24.005,53.621-53.62C4447.24,1871.765,4423.234,1847.759,4393.619,1847.759z M4389.558,1920.763h-21.448v-4.959
			h7.855v-22.602c0-0.894,0.027-1.814,0.081-2.761l-5.576,4.664c-0.322,0.25-0.64,0.406-0.952,0.469
			c-0.313,0.063-0.608,0.068-0.885,0.015c-0.277-0.054-0.523-0.148-0.737-0.282c-0.215-0.134-0.375-0.281-0.482-0.442l-2.091-2.868
			l11.822-10.054h5.442v33.861h6.971V1920.763z M4420.938,1914.543c-0.652,1.395-1.567,2.583-2.748,3.565
			c-1.18,0.982-2.597,1.743-4.249,2.279c-1.653,0.535-3.48,0.805-5.482,0.805s-3.83-0.27-5.483-0.805
			c-1.653-0.536-3.069-1.297-4.249-2.279s-2.096-2.171-2.748-3.565c-0.652-1.394-0.979-2.949-0.979-4.665
			c0-2.288,0.563-4.223,1.689-5.804c1.126-1.583,2.868-2.757,5.228-3.525c-1.876-0.787-3.284-1.904-4.222-3.352
			c-0.939-1.448-1.408-3.19-1.408-5.229c0-1.466,0.299-2.832,0.898-4.103c0.598-1.269,1.434-2.372,2.507-3.311
			c1.072-0.938,2.354-1.671,3.847-2.198s3.133-0.791,4.92-0.791s3.427,0.264,4.92,0.791c1.491,0.527,2.774,1.261,3.847,2.198
			c1.072,0.938,1.908,2.042,2.507,3.311c0.599,1.271,0.898,2.637,0.898,4.103c0,2.038-0.47,3.78-1.408,5.229
			c-0.938,1.447-2.346,2.564-4.222,3.352c2.358,0.769,4.102,1.942,5.228,3.525c1.126,1.581,1.688,3.516,1.688,5.804
			C4421.917,1911.594,4421.591,1913.15,4420.938,1914.543z"/>

</g>
<g id="villa20">
	<polygon fill="rgba(187, 159, 121, 0.8)" points="4931.07,2491.215 5132.494,2358.571 5168.223,2056.66 5144.105,2046.387 5147.232,2005.746 
		4859.166,1890.966 4870.332,1785.118 4613.527,1685.077 4395.58,1797.624 4657.297,1902.131 4651.938,1963.317 4798.873,2020.484 
		4796.641,2063.359 4946.256,2129.458 4943.576,2179.479 4959.207,2187.964 	"/>

		<path fill="#FFFFFF" d="M4643.269,1769.618c-0.688-1.089-1.479-1.853-2.372-2.291c-0.895-0.438-1.823-0.657-2.789-0.657
			c-0.947,0-1.863,0.22-2.748,0.657c-0.885,0.438-1.667,1.202-2.346,2.291c-0.68,1.092-1.22,2.557-1.622,4.398
			c-0.402,1.841-0.604,4.164-0.604,6.97s0.201,5.13,0.604,6.972c0.402,1.84,0.942,3.307,1.622,4.396
			c0.679,1.09,1.461,1.854,2.346,2.292s1.801,0.657,2.748,0.657c0.966,0,1.895-0.219,2.789-0.657
			c0.893-0.438,1.684-1.202,2.372-2.292s1.237-2.557,1.648-4.396c0.411-1.842,0.616-4.166,0.616-6.972s-0.205-5.129-0.616-6.97
			C4644.506,1772.174,4643.957,1770.709,4643.269,1769.618z"/>
		<path fill="#FFFFFF" d="M4622.961,1727.366c-29.614,0-53.621,24.006-53.621,53.62c0,29.615,24.007,53.62,53.621,53.62
			c29.615,0,53.62-24.005,53.62-53.62C4676.581,1751.372,4652.576,1727.366,4622.961,1727.366z M4620.145,1800.37h-26.595v-2.198
			c0-0.447,0.094-0.916,0.281-1.407c0.188-0.492,0.486-0.934,0.897-1.327l11.771-11.797c0.982-1,1.862-1.957,2.641-2.869
			c0.777-0.911,1.425-1.813,1.943-2.707s0.916-1.8,1.193-2.722c0.277-0.92,0.415-1.89,0.415-2.908c0-0.93-0.134-1.748-0.402-2.453
			c-0.268-0.706-0.647-1.301-1.139-1.783c-0.492-0.483-1.082-0.845-1.77-1.086c-0.688-0.241-1.461-0.361-2.319-0.361
			c-0.786,0-1.515,0.11-2.185,0.335c-0.671,0.224-1.266,0.536-1.783,0.938c-0.519,0.402-0.956,0.871-1.313,1.407
			c-0.358,0.535-0.626,1.126-0.804,1.77c-0.305,0.822-0.698,1.366-1.18,1.635c-0.483,0.269-1.18,0.331-2.092,0.188l-3.485-0.616
			c0.269-1.858,0.786-3.489,1.556-4.893c0.768-1.403,1.729-2.574,2.881-3.513c1.153-0.938,2.476-1.644,3.969-2.117
			c1.492-0.474,3.097-0.711,4.812-0.711c1.787,0,3.422,0.264,4.906,0.791c1.483,0.528,2.752,1.273,3.807,2.238
			s1.877,2.128,2.467,3.485c0.59,1.358,0.885,2.869,0.885,4.53c0,1.431-0.21,2.754-0.631,3.969c-0.42,1.216-0.982,2.378-1.688,3.485
			c-0.707,1.108-1.533,2.181-2.48,3.218c-0.948,1.037-1.939,2.091-2.977,3.163l-8.74,8.928c0.841-0.249,1.676-0.442,2.507-0.577
			c0.831-0.133,1.622-0.2,2.373-0.2h9.946c0.715,0,1.282,0.2,1.702,0.603c0.421,0.402,0.63,0.935,0.63,1.596V1800.37z
			 M4651.284,1789.793c-0.724,2.493-1.725,4.554-3.002,6.18c-1.278,1.626-2.788,2.838-4.531,3.632
			c-1.743,0.796-3.624,1.194-5.644,1.194c-2.021,0-3.893-0.398-5.616-1.194c-1.726-0.794-3.222-2.006-4.491-3.632
			c-1.269-1.626-2.262-3.687-2.976-6.18c-0.716-2.494-1.073-5.43-1.073-8.808c0-3.396,0.357-6.336,1.073-8.821
			c0.714-2.482,1.707-4.539,2.976-6.165c1.27-1.626,2.766-2.838,4.491-3.633c1.724-0.795,3.596-1.193,5.616-1.193
			c2.02,0,3.9,0.398,5.644,1.193s3.253,2.007,4.531,3.633c1.277,1.626,2.278,3.683,3.002,6.165c0.725,2.485,1.086,5.426,1.086,8.821
			C4652.37,1784.364,4652.009,1787.299,4651.284,1789.793z"/>

</g>
<g id="villa22">
	<polygon fill="rgba(187, 159, 121, 0.8)" points="3257.271,2147.545 3502.059,2030.009 3502.644,1743.59 3488.353,1737.638 3488.353,1691.186 
		3371.492,1639.968 3371.643,1602.453 3257.906,1553.029 3257.605,1498.245 3058.416,1411.302 2809.205,1511.567 2818.919,1815.823 
		2905.964,1856.137 2908.912,1973.254 	"/>
	<path fill="#FFFFFF" d="M3014.077,1477.744c-29.614,0-53.62,24.006-53.62,53.62c0,29.615,24.006,53.621,53.62,53.621
		c29.615,0,53.62-24.006,53.62-53.621C3067.697,1501.75,3043.692,1477.744,3014.077,1477.744z M3011.825,1550.962h-26.595v-2.198
		c0-0.446,0.094-0.916,0.28-1.407c0.188-0.492,0.487-0.934,0.898-1.327l11.771-11.796c0.982-1.001,1.862-1.958,2.64-2.87
		c0.778-0.911,1.425-1.812,1.944-2.707c0.518-0.893,0.915-1.8,1.193-2.722c0.276-0.92,0.415-1.889,0.415-2.908
		c0-0.929-0.135-1.747-0.402-2.454c-0.268-0.706-0.648-1.3-1.14-1.782c-0.491-0.483-1.082-0.845-1.769-1.086
		c-0.688-0.241-1.462-0.361-2.319-0.361c-0.787,0-1.515,0.111-2.186,0.335c-0.67,0.223-1.265,0.536-1.782,0.938
		c-0.519,0.402-0.957,0.872-1.314,1.408s-0.625,1.126-0.804,1.77c-0.305,0.822-0.697,1.367-1.18,1.636
		c-0.482,0.268-1.18,0.33-2.092,0.188L2985.9,1523c0.268-1.858,0.785-3.489,1.555-4.893c0.768-1.403,1.729-2.574,2.882-3.513
		c1.152-0.938,2.475-1.644,3.968-2.117c1.492-0.474,3.097-0.711,4.812-0.711c1.787,0,3.423,0.264,4.906,0.791
		s2.752,1.273,3.808,2.238c1.054,0.966,1.876,2.128,2.466,3.485c0.59,1.358,0.885,2.869,0.885,4.531c0,1.431-0.21,2.753-0.63,3.968
		c-0.42,1.216-0.983,2.378-1.688,3.485c-0.707,1.108-1.533,2.181-2.48,3.218s-1.939,2.091-2.976,3.164l-8.74,8.927
		c0.84-0.249,1.675-0.442,2.507-0.576c0.831-0.134,1.621-0.2,2.372-0.2h9.946c0.715,0,1.283,0.2,1.703,0.603
		c0.42,0.401,0.63,0.935,0.63,1.596V1550.962z M3042.925,1550.962h-26.596v-2.198c0-0.446,0.094-0.916,0.281-1.407
		c0.188-0.492,0.487-0.934,0.897-1.327l11.771-11.796c0.983-1.001,1.863-1.958,2.641-2.87c0.777-0.911,1.425-1.812,1.943-2.707
		c0.519-0.893,0.916-1.8,1.194-2.722c0.276-0.92,0.414-1.889,0.414-2.908c0-0.929-0.134-1.747-0.401-2.454
		c-0.269-0.706-0.648-1.3-1.14-1.782c-0.491-0.483-1.082-0.845-1.77-1.086c-0.688-0.241-1.461-0.361-2.319-0.361
		c-0.786,0-1.515,0.111-2.185,0.335c-0.671,0.223-1.265,0.536-1.783,0.938c-0.519,0.402-0.956,0.872-1.313,1.408
		s-0.626,1.126-0.804,1.77c-0.305,0.822-0.698,1.367-1.18,1.636c-0.483,0.268-1.18,0.33-2.092,0.188L3017,1523
		c0.268-1.858,0.785-3.489,1.555-4.893c0.768-1.403,1.729-2.574,2.881-3.513c1.153-0.938,2.476-1.644,3.969-2.117
		c1.492-0.474,3.097-0.711,4.812-0.711c1.787,0,3.423,0.264,4.906,0.791s2.752,1.273,3.807,2.238
		c1.055,0.966,1.877,2.128,2.467,3.485c0.59,1.358,0.885,2.869,0.885,4.531c0,1.431-0.21,2.753-0.63,3.968
		c-0.421,1.216-0.983,2.378-1.688,3.485c-0.707,1.108-1.533,2.181-2.48,3.218s-1.939,2.091-2.977,3.164l-8.74,8.927
		c0.841-0.249,1.676-0.442,2.508-0.576c0.831-0.134,1.621-0.2,2.372-0.2h9.946c0.715,0,1.282,0.2,1.703,0.603
		c0.42,0.401,0.63,0.935,0.63,1.596V1550.962z"/>
</g>
<g id="villa24">
	<polygon fill="rgba(187, 159, 121, 0.8)" points="3501.758,2030.009 3725.219,1922.836 3730.125,1640.862 3718.959,1634.833 3719.629,1587.938 
		3602.693,1538.737 3601.723,1503.974 3487.166,1456.41 3487.836,1401.7 3288.276,1321.979 3058.416,1410.708 3257.01,1498.542 
		3257.605,1553.325 3371.643,1602.453 3371.189,1639.826 3488.198,1691.336 3488.346,1737.484 3502.49,1743.737 	"/>

		<path fill="#FFFFFF" d="M3284.797,1359.948c-29.614,0-53.62,24.006-53.62,53.62c0,29.615,24.006,53.621,53.62,53.621
			s53.62-24.006,53.62-53.621C3338.417,1383.955,3314.411,1359.948,3284.797,1359.948z M3281.994,1433.167h-26.595v-2.198
			c0-0.446,0.094-0.916,0.281-1.407c0.188-0.492,0.487-0.934,0.897-1.327l11.771-11.796c0.983-1.001,1.862-1.958,2.641-2.87
			c0.777-0.911,1.425-1.812,1.943-2.707c0.52-0.893,0.916-1.8,1.193-2.722c0.276-0.92,0.415-1.889,0.415-2.908
			c0-0.929-0.134-1.747-0.402-2.454c-0.267-0.706-0.647-1.3-1.138-1.782c-0.492-0.483-1.084-0.845-1.771-1.086
			c-0.688-0.241-1.461-0.361-2.319-0.361c-0.786,0-1.514,0.111-2.185,0.335c-0.671,0.223-1.266,0.536-1.783,0.938
			c-0.519,0.402-0.956,0.872-1.314,1.408c-0.356,0.536-0.625,1.126-0.803,1.77c-0.305,0.822-0.698,1.367-1.181,1.636
			c-0.482,0.268-1.179,0.33-2.091,0.188l-3.485-0.617c0.268-1.858,0.785-3.489,1.556-4.893c0.767-1.403,1.728-2.574,2.881-3.513
			s2.476-1.644,3.968-2.117s3.098-0.711,4.812-0.711c1.788,0,3.423,0.264,4.906,0.791s2.752,1.273,3.808,2.238
			c1.055,0.966,1.877,2.128,2.467,3.485c0.589,1.358,0.884,2.869,0.884,4.531c0,1.431-0.21,2.753-0.63,3.968
			c-0.42,1.216-0.983,2.378-1.688,3.485c-0.707,1.108-1.532,2.181-2.48,3.218c-0.947,1.037-1.939,2.091-2.975,3.164l-8.741,8.927
			c0.84-0.249,1.675-0.442,2.508-0.576c0.83-0.134,1.622-0.2,2.372-0.2h9.946c0.715,0,1.282,0.2,1.702,0.603
			c0.42,0.401,0.63,0.935,0.63,1.596V1433.167z M3314.192,1422.389c0,0.358-0.115,0.666-0.348,0.925
			c-0.231,0.259-0.562,0.39-0.992,0.39h-3.539v9.463h-5.764v-9.463h-16.354c-0.446,0-0.841-0.139-1.179-0.416
			c-0.341-0.277-0.556-0.621-0.644-1.032l-0.698-3.351l18.365-24.532h6.273v24.183h4.879V1422.389z"/>
		<path fill="#FFFFFF" d="M3303.55,1418.555v-12.681c0-1.197,0.081-2.521,0.24-3.969l-12.037,16.649H3303.55z"/>

</g>
<g id="villa26">
	<polyline fill="rgba(187, 159, 121, 0.8)" points="3288.422,1321.867 3487.947,1401.7 3487.277,1456.298 3601.834,1503.863 3602.84,1538.475 
		3719.629,1587.714 3718.959,1634.721 3730.013,1640.75 3725.323,1922.787 3937.946,1819.208 3947.703,1539.854 3924.031,1529.135 
		3926.041,1494.746 3704.744,1406.762 3706.3,1310.81 3508.457,1235.039 	"/>

		<path fill="#FFFFFF" d="M3512.38,1262.759c-29.614,0-53.621,24.006-53.621,53.621s24.007,53.62,53.621,53.62
			c29.615,0,53.62-24.006,53.62-53.62S3541.995,1262.759,3512.38,1262.759z M3509.779,1335.763h-26.596v-2.199
			c0-0.446,0.094-0.916,0.281-1.407c0.188-0.492,0.487-0.934,0.897-1.327l11.771-11.796c0.983-1.001,1.863-1.958,2.641-2.87
			c0.777-0.911,1.425-1.812,1.943-2.707c0.519-0.893,0.916-1.801,1.193-2.722c0.277-0.92,0.415-1.89,0.415-2.908
			c0-0.929-0.134-1.747-0.401-2.453c-0.269-0.706-0.648-1.301-1.14-1.783s-1.082-0.845-1.77-1.085
			c-0.688-0.242-1.461-0.362-2.319-0.362c-0.786,0-1.515,0.111-2.185,0.335c-0.671,0.224-1.266,0.536-1.783,0.938
			c-0.519,0.402-0.956,0.871-1.313,1.407s-0.626,1.126-0.804,1.77c-0.305,0.822-0.698,1.367-1.18,1.636
			c-0.483,0.268-1.18,0.331-2.092,0.188l-3.485-0.617c0.269-1.858,0.786-3.489,1.556-4.893c0.768-1.403,1.729-2.573,2.881-3.512
			c1.153-0.938,2.476-1.645,3.969-2.118c1.492-0.474,3.097-0.71,4.812-0.71c1.787,0,3.422,0.264,4.906,0.79
			c1.483,0.527,2.752,1.273,3.807,2.239c1.055,0.965,1.877,2.127,2.467,3.485s0.885,2.868,0.885,4.53c0,1.431-0.21,2.753-0.63,3.968
			c-0.421,1.216-0.983,2.378-1.688,3.485c-0.707,1.108-1.533,2.181-2.48,3.218s-1.939,2.091-2.977,3.164l-8.74,8.927
			c0.841-0.249,1.676-0.442,2.508-0.576c0.831-0.134,1.621-0.2,2.372-0.2h9.946c0.715,0,1.282,0.2,1.702,0.603
			c0.421,0.401,0.631,0.935,0.631,1.596V1335.763z M3540.583,1328.242c-0.661,1.583-1.59,2.963-2.788,4.143
			s-2.641,2.109-4.329,2.788c-1.689,0.679-3.553,1.02-5.59,1.02c-2.074,0-3.934-0.331-5.577-0.992
			c-1.645-0.661-3.048-1.586-4.209-2.774c-1.162-1.188-2.052-2.618-2.668-4.29s-0.925-3.525-0.925-5.563
			c0-1.822,0.371-3.695,1.112-5.616c0.741-1.922,1.891-3.918,3.446-5.992l9.249-12.413c0.321-0.429,0.79-0.795,1.407-1.1
			c0.617-0.304,1.328-0.455,2.131-0.455h5.899l-11.503,14.075l-1.34,1.662c0.751-0.375,1.56-0.666,2.427-0.872
			c0.866-0.205,1.8-0.308,2.802-0.308c1.465,0,2.891,0.241,4.275,0.724c1.385,0.483,2.605,1.212,3.66,2.186s1.904,2.186,2.547,3.633
			c0.644,1.447,0.965,3.137,0.965,5.066C3541.575,1324.967,3541.245,1326.661,3540.583,1328.242z"/>
		<path fill="#FFFFFF" d="M3532.996,1318.403c-0.626-0.616-1.376-1.086-2.252-1.407c-0.876-0.322-1.841-0.483-2.896-0.483
			s-2.012,0.18-2.868,0.538c-0.858,0.356-1.591,0.853-2.198,1.487c-0.608,0.634-1.082,1.385-1.421,2.251
			c-0.341,0.868-0.51,1.801-0.51,2.803c0,1.072,0.147,2.05,0.442,2.936c0.294,0.885,0.732,1.641,1.313,2.266s1.3,1.112,2.157,1.461
			c0.858,0.348,1.851,0.522,2.977,0.522c1.055,0,2.023-0.179,2.909-0.536c0.885-0.357,1.644-0.858,2.278-1.501
			c0.635-0.644,1.131-1.399,1.488-2.266c0.357-0.867,0.536-1.81,0.536-2.828c0-1.109-0.17-2.105-0.51-2.99
			C3534.104,1319.771,3533.621,1319.02,3532.996,1318.403z"/>

</g>
<g id="villa28">
	<polygon fill="rgba(187, 159, 121, 0.8)" points="2302.297,1635.726 2539.754,1543.482 2527.018,1286.546 2516.002,1281.337 2513.658,1238.35 
		2422.213,1200.5 2420.093,1161.756 2330.658,1124.24 2327.531,1076.453 2166.154,1009.349 1928.258,1085.273 1952.822,1361.728 
		2021.6,1393.884 2030.979,1499.731 	"/>

		<path fill="#FFFFFF" d="M2157.779,1114.016c-2.073,0-3.699,0.545-4.879,1.635c-1.179,1.09-1.77,2.699-1.77,4.826
			c0,0.894,0.144,1.725,0.429,2.493c0.286,0.769,0.711,1.43,1.273,1.984c0.563,0.554,1.256,0.988,2.078,1.3
			c0.821,0.313,1.778,0.469,2.868,0.469c1.091,0,2.048-0.156,2.87-0.469c0.821-0.312,1.514-0.746,2.076-1.3
			c0.563-0.554,0.988-1.215,1.274-1.984c0.285-0.769,0.429-1.6,0.429-2.493c0-2.127-0.59-3.736-1.77-4.826
			C2161.479,1114.561,2159.853,1114.016,2157.779,1114.016z"/>
		<path fill="#FFFFFF" d="M2153.302,1106.951c0.447,0.563,1.037,1.015,1.771,1.354c0.732,0.34,1.635,0.509,2.707,0.509
			c1.073,0,1.976-0.169,2.708-0.509c0.733-0.339,1.322-0.791,1.77-1.354s0.765-1.207,0.952-1.93c0.188-0.724,0.281-1.47,0.281-2.239
			c0-0.733-0.116-1.43-0.349-2.091c-0.232-0.661-0.581-1.247-1.045-1.756c-0.465-0.51-1.056-0.916-1.771-1.22
			c-0.715-0.304-1.563-0.456-2.547-0.456c-0.982,0-1.831,0.152-2.546,0.456c-0.715,0.304-1.31,0.71-1.783,1.22
			c-0.475,0.509-0.822,1.095-1.046,1.756c-0.224,0.662-0.335,1.358-0.335,2.091c0,0.769,0.094,1.515,0.281,2.239
			C2152.538,1105.745,2152.855,1106.388,2153.302,1106.951z"/>
		<path fill="#FFFFFF" d="M2142.203,1058.465c-29.614,0-53.62,24.006-53.62,53.621c0,29.615,24.006,53.62,53.62,53.62
			c29.615,0,53.62-24.005,53.62-53.62C2195.823,1082.471,2171.818,1058.465,2142.203,1058.465z M2139.764,1131.469h-26.595v-2.199
			c0-0.446,0.094-0.916,0.28-1.408c0.188-0.491,0.487-0.934,0.898-1.327l11.771-11.796c0.982-1.001,1.862-1.958,2.64-2.869
			c0.778-0.911,1.425-1.813,1.944-2.708c0.518-0.894,0.916-1.801,1.193-2.722c0.276-0.92,0.415-1.89,0.415-2.909
			c0-0.929-0.134-1.747-0.402-2.453c-0.268-0.706-0.647-1.3-1.139-1.783c-0.492-0.483-1.082-0.845-1.77-1.085
			c-0.688-0.242-1.462-0.362-2.319-0.362c-0.787,0-1.515,0.112-2.185,0.335c-0.671,0.224-1.266,0.536-1.783,0.938
			c-0.519,0.402-0.957,0.871-1.314,1.407c-0.357,0.537-0.625,1.126-0.804,1.77c-0.305,0.822-0.697,1.367-1.18,1.635
			c-0.482,0.268-1.18,0.331-2.092,0.188l-3.484-0.617c0.268-1.858,0.785-3.489,1.555-4.893c0.768-1.403,1.729-2.573,2.882-3.512
			s2.476-1.644,3.968-2.118s3.097-0.71,4.812-0.71c1.787,0,3.423,0.264,4.906,0.791c1.483,0.527,2.752,1.273,3.808,2.239
			c1.054,0.965,1.876,2.127,2.466,3.485c0.59,1.358,0.885,2.869,0.885,4.531c0,1.43-0.21,2.753-0.63,3.968
			c-0.42,1.216-0.983,2.377-1.688,3.485c-0.707,1.108-1.533,2.181-2.48,3.217c-0.947,1.037-1.939,2.091-2.976,3.164l-8.74,8.928
			c0.84-0.25,1.675-0.442,2.507-0.576c0.831-0.134,1.622-0.201,2.373-0.201h9.945c0.715,0,1.283,0.201,1.703,0.603
			c0.42,0.402,0.63,0.935,0.63,1.595V1131.469z M2170.26,1125.249c-0.652,1.394-1.568,2.583-2.748,3.566s-2.597,1.743-4.249,2.279
			c-1.654,0.536-3.48,0.804-5.483,0.804c-2.002,0-3.829-0.268-5.482-0.804s-3.069-1.296-4.249-2.279s-2.096-2.172-2.748-3.566
			s-0.979-2.949-0.979-4.665c0-2.288,0.562-4.223,1.689-5.804c1.126-1.582,2.868-2.757,5.228-3.525
			c-1.877-0.787-3.284-1.904-4.223-3.352s-1.407-3.19-1.407-5.228c0-1.466,0.299-2.833,0.897-4.102s1.435-2.373,2.507-3.312
			c1.072-0.938,2.355-1.671,3.848-2.198c1.492-0.527,3.132-0.791,4.919-0.791c1.788,0,3.427,0.264,4.921,0.791
			c1.491,0.527,2.774,1.26,3.847,2.198c1.072,0.938,1.907,2.042,2.507,3.312c0.599,1.269,0.898,2.636,0.898,4.102
			c0,2.037-0.47,3.78-1.408,5.228s-2.346,2.565-4.223,3.352c2.359,0.769,4.103,1.943,5.229,3.525
			c1.126,1.582,1.688,3.517,1.688,5.804C2171.238,1122.3,2170.912,1123.855,2170.26,1125.249z"/>

</g>
<g id="villa30">
	<polygon fill="rgba(187, 159, 121, 0.8)" points="2539.754,1543.482 2762.199,1458.084 2751.592,1205.189 2741.766,1201.393 2739.086,1158.964 
		2644.404,1116.983 2643.512,1088.846 2555.082,1050.884 2552.848,1001.013 2393.406,938.337 2166.08,1009.349 2327.644,1076.341 
		2330.77,1124.24 2420.315,1161.644 2422.213,1200.165 2513.77,1238.127 2515.892,1281.002 2527.168,1286.361 	"/>

		<path fill="#FFFFFF" d="M2425.822,1008.012c-0.688-1.09-1.479-1.854-2.372-2.292c-0.894-0.438-1.823-0.657-2.789-0.657
			c-0.946,0-1.862,0.219-2.747,0.657c-0.885,0.438-1.667,1.203-2.346,2.292c-0.68,1.09-1.221,2.556-1.622,4.397
			c-0.402,1.841-0.604,4.165-0.604,6.97c0,2.806,0.201,5.13,0.604,6.971c0.401,1.841,0.942,3.307,1.622,4.396
			c0.679,1.091,1.461,1.854,2.346,2.292s1.801,0.657,2.747,0.657c0.966,0,1.896-0.219,2.789-0.657s1.685-1.202,2.372-2.292
			c0.688-1.09,1.238-2.556,1.649-4.396c0.411-1.841,0.616-4.165,0.616-6.971c0-2.806-0.205-5.129-0.616-6.97
			S2426.511,1009.102,2425.822,1008.012z"/>
		<path fill="#FFFFFF" d="M2405.38,965.759c-29.614,0-53.62,24.006-53.62,53.62c0,29.615,24.006,53.62,53.62,53.62
			s53.62-24.005,53.62-53.62C2459,989.765,2434.994,965.759,2405.38,965.759z M2401.573,1032.382
			c-0.715,1.484-1.681,2.73-2.896,3.74s-2.623,1.774-4.223,2.292c-1.6,0.518-3.293,0.777-5.08,0.777
			c-1.948,0-3.646-0.224-5.094-0.67c-1.448-0.447-2.708-1.108-3.78-1.984c-1.072-0.875-1.984-1.948-2.735-3.217
			c-0.75-1.269-1.394-2.734-1.93-4.396l2.922-1.207c0.769-0.321,1.488-0.406,2.158-0.254s1.157,0.514,1.462,1.086
			c0.321,0.625,0.674,1.243,1.058,1.85c0.385,0.608,0.846,1.148,1.381,1.622c0.537,0.474,1.166,0.858,1.891,1.153
			s1.586,0.442,2.587,0.442c1.126,0,2.109-0.183,2.949-0.549c0.841-0.367,1.542-0.845,2.104-1.435
			c0.563-0.59,0.983-1.247,1.261-1.97c0.276-0.724,0.415-1.452,0.415-2.185c0-0.93-0.099-1.774-0.295-2.534
			s-0.607-1.408-1.233-1.944s-1.524-0.956-2.694-1.26c-1.17-0.304-2.738-0.456-4.705-0.456v-4.719
			c1.626-0.018,2.977-0.17,4.049-0.456s1.926-0.684,2.561-1.193c0.634-0.509,1.076-1.121,1.327-1.836
			c0.25-0.715,0.375-1.501,0.375-2.359c0-1.823-0.51-3.208-1.528-4.156c-1.019-0.947-2.377-1.421-4.075-1.421
			c-0.786,0-1.511,0.112-2.171,0.335c-0.662,0.224-1.257,0.536-1.783,0.938c-0.527,0.402-0.97,0.871-1.327,1.407
			c-0.357,0.537-0.626,1.126-0.805,1.77c-0.304,0.822-0.702,1.367-1.192,1.635c-0.492,0.268-1.186,0.331-2.078,0.188l-3.486-0.617
			c0.27-1.858,0.787-3.489,1.556-4.893c0.769-1.403,1.729-2.574,2.882-3.512c1.153-0.938,2.476-1.644,3.968-2.118
			c1.493-0.473,3.097-0.71,4.813-0.71c1.787,0,3.399,0.255,4.838,0.764c1.439,0.509,2.669,1.216,3.688,2.118
			c1.019,0.903,1.8,1.961,2.346,3.177c0.545,1.216,0.817,2.529,0.817,3.941c0,1.233-0.139,2.319-0.415,3.257
			c-0.278,0.938-0.676,1.756-1.193,2.453c-0.519,0.697-1.162,1.287-1.93,1.77c-0.77,0.482-1.637,0.885-2.602,1.206
			c2.323,0.733,4.058,1.85,5.201,3.352c1.144,1.501,1.716,3.387,1.716,5.657C2402.646,1029.191,2402.288,1030.899,2401.573,1032.382
			z M2433.839,1028.187c-0.724,2.493-1.725,4.553-3.002,6.18c-1.278,1.626-2.789,2.837-4.531,3.632
			c-1.743,0.795-3.624,1.193-5.645,1.193c-2.02,0-3.892-0.398-5.616-1.193c-1.725-0.795-3.222-2.006-4.49-3.632
			c-1.27-1.626-2.262-3.687-2.976-6.18c-0.716-2.494-1.073-5.429-1.073-8.808c0-3.396,0.357-6.336,1.073-8.82
			c0.714-2.484,1.706-4.54,2.976-6.166c1.269-1.626,2.766-2.838,4.49-3.633c1.725-0.795,3.597-1.193,5.616-1.193
			c2.021,0,3.901,0.398,5.645,1.193c1.742,0.795,3.253,2.007,4.531,3.633c1.277,1.626,2.278,3.682,3.002,6.166
			c0.725,2.484,1.086,5.425,1.086,8.82C2434.925,1022.757,2434.563,1025.693,2433.839,1028.187z"/>

</g>
<g id="villa32">
	<polygon fill="rgba(187, 159, 121, 0.8)" points="2393.742,938.337 2552.848,1000.975 2554.857,1050.996 2643.287,1088.958 2644.404,1117.094 
		2739.198,1159.076 2741.878,1201.393 2751.592,1205.189 2762.311,1457.9 2973.559,1377.359 2966.859,1127.59 2941.703,1115.346 
		2941.105,1084.977 2772.359,1018.169 2769.68,931.08 2610.238,869.893 	"/>
	<path fill="#FFFFFF" d="M2612.38,893.759c-29.614,0-53.62,24.006-53.62,53.62c0,29.615,24.006,53.62,53.62,53.62
		c29.616,0,53.62-24.005,53.62-53.62C2666,917.765,2641.996,893.759,2612.38,893.759z M2609.136,960.382
		c-0.715,1.483-1.68,2.73-2.895,3.74c-1.215,1.01-2.624,1.774-4.223,2.292c-1.6,0.518-3.293,0.777-5.081,0.777
		c-1.947,0-3.646-0.224-5.094-0.67c-1.447-0.446-2.708-1.107-3.779-1.984c-1.073-0.875-1.985-1.948-2.735-3.217
		c-0.751-1.269-1.395-2.734-1.93-4.396l2.921-1.207c0.769-0.322,1.488-0.406,2.159-0.255c0.67,0.152,1.156,0.514,1.461,1.086
		c0.322,0.626,0.674,1.243,1.059,1.85c0.385,0.608,0.845,1.148,1.381,1.622c0.537,0.474,1.166,0.858,1.891,1.153
		c0.725,0.294,1.586,0.442,2.588,0.442c1.125,0,2.108-0.183,2.948-0.55c0.841-0.366,1.542-0.845,2.104-1.435
		c0.563-0.59,0.983-1.247,1.26-1.97c0.277-0.724,0.416-1.452,0.416-2.185c0-0.929-0.098-1.773-0.295-2.534
		c-0.197-0.759-0.607-1.408-1.232-1.944c-0.627-0.536-1.524-0.956-2.695-1.26c-1.171-0.304-2.739-0.456-4.705-0.456v-4.719
		c1.625-0.018,2.976-0.169,4.049-0.455c1.071-0.286,1.925-0.684,2.56-1.193s1.076-1.122,1.327-1.836s0.376-1.501,0.376-2.359
		c0-1.823-0.51-3.208-1.528-4.156c-1.019-0.947-2.378-1.421-4.074-1.421c-0.787,0-1.512,0.112-2.173,0.335
		c-0.661,0.223-1.256,0.536-1.783,0.938c-0.527,0.402-0.969,0.872-1.327,1.408c-0.356,0.536-0.625,1.126-0.805,1.77
		c-0.303,0.822-0.701,1.367-1.191,1.635c-0.492,0.268-1.186,0.331-2.078,0.188l-3.486-0.617c0.269-1.858,0.786-3.489,1.555-4.893
		c0.77-1.403,1.729-2.574,2.883-3.512c1.152-0.938,2.475-1.644,3.969-2.118c1.491-0.474,3.096-0.71,4.812-0.71
		c1.788,0,3.4,0.254,4.84,0.764c1.438,0.51,2.667,1.216,3.687,2.118c1.018,0.903,1.799,1.962,2.345,3.177
		c0.546,1.216,0.817,2.529,0.817,3.941c0,1.233-0.139,2.319-0.415,3.257c-0.276,0.938-0.675,1.756-1.192,2.453
		c-0.52,0.697-1.162,1.287-1.931,1.77c-0.769,0.482-1.636,0.885-2.601,1.207c2.323,0.733,4.058,1.85,5.201,3.351
		c1.143,1.501,1.716,3.387,1.716,5.657C2610.209,957.192,2609.851,958.899,2609.136,960.382z M2641.362,966.763h-26.596v-2.198
		c0-0.447,0.094-0.916,0.28-1.408c0.189-0.491,0.487-0.934,0.899-1.327l11.77-11.796c0.982-1.001,1.863-1.958,2.641-2.869
		c0.777-0.911,1.424-1.813,1.943-2.708c0.519-0.894,0.916-1.8,1.194-2.721c0.276-0.92,0.415-1.89,0.415-2.909
		c0-0.929-0.135-1.747-0.402-2.453c-0.269-0.706-0.648-1.3-1.14-1.783c-0.492-0.483-1.081-0.845-1.769-1.085
		c-0.689-0.242-1.463-0.362-2.32-0.362c-0.787,0-1.515,0.112-2.184,0.335c-0.672,0.223-1.266,0.536-1.783,0.938
		c-0.52,0.402-0.958,0.872-1.314,1.408c-0.358,0.536-0.625,1.126-0.805,1.77c-0.305,0.822-0.697,1.367-1.179,1.635
		c-0.483,0.268-1.181,0.331-2.093,0.188l-3.484-0.617c0.269-1.858,0.786-3.489,1.555-4.893c0.77-1.403,1.729-2.574,2.883-3.512
		c1.152-0.938,2.475-1.644,3.969-2.118c1.491-0.474,3.095-0.71,4.812-0.71c1.786,0,3.423,0.264,4.906,0.791
		c1.483,0.528,2.752,1.273,3.808,2.239c1.053,0.965,1.875,2.127,2.465,3.485c0.592,1.358,0.886,2.869,0.886,4.531
		c0,1.43-0.21,2.753-0.63,3.968s-0.983,2.377-1.688,3.485c-0.707,1.109-1.534,2.181-2.48,3.217
		c-0.947,1.037-1.939,2.091-2.977,3.164l-8.739,8.928c0.84-0.25,1.676-0.442,2.506-0.576c0.832-0.134,1.622-0.201,2.373-0.201h9.945
		c0.715,0,1.283,0.201,1.704,0.603c0.42,0.402,0.63,0.935,0.63,1.595V966.763z"/>
</g>
<g id="villa34">
	<polygon fill="rgba(187, 159, 121, 0.8)" points="1586.15,1247.618 1810.129,1176.159 1787.574,938.784 1781.029,936.104 1776.262,894.122 
		1703.014,862.562 1700.338,831.893 1625.006,801.226 1620.24,753.882 1484.323,702.078 1262.58,761.924 1293.322,1014.558 
		1350.936,1042.548 1362.098,1138.121 	"/>

		<path fill="#FFFFFF" d="M1469.51,791.182v-12.681c0-1.197,0.081-2.521,0.241-3.968l-12.038,16.649H1469.51z"/>
		<path fill="#FFFFFF" d="M1450.622,732.79c-29.614,0-53.621,24.006-53.621,53.62c0,29.615,24.007,53.62,53.621,53.62
			c29.615,0,53.62-24.005,53.62-53.62C1504.242,756.796,1480.237,732.79,1450.622,732.79z M1446.828,799.413
			c-0.715,1.484-1.681,2.73-2.896,3.74s-2.623,1.774-4.222,2.292c-1.601,0.519-3.294,0.778-5.081,0.778
			c-1.948,0-3.646-0.224-5.094-0.67c-1.448-0.447-2.708-1.108-3.78-1.984s-1.984-1.948-2.735-3.217
			c-0.75-1.269-1.394-2.735-1.93-4.397l2.922-1.207c0.769-0.322,1.488-0.406,2.158-0.254s1.157,0.514,1.462,1.085
			c0.321,0.626,0.674,1.243,1.059,1.85c0.384,0.608,0.845,1.148,1.381,1.622s1.166,0.858,1.891,1.153
			c0.724,0.295,1.585,0.442,2.587,0.442c1.126,0,2.108-0.183,2.949-0.549c0.84-0.367,1.541-0.845,2.104-1.435
			c0.563-0.59,0.982-1.246,1.26-1.97c0.277-0.724,0.415-1.452,0.415-2.185c0-0.929-0.098-1.773-0.294-2.534
			c-0.197-0.759-0.608-1.407-1.233-1.943c-0.627-0.536-1.524-0.957-2.694-1.26c-1.171-0.304-2.739-0.456-4.706-0.456v-4.719
			c1.627-0.018,2.977-0.17,4.049-0.456c1.072-0.286,1.926-0.684,2.561-1.193s1.076-1.122,1.327-1.836
			c0.25-0.715,0.375-1.501,0.375-2.359c0-1.824-0.509-3.208-1.528-4.156c-1.018-0.948-2.377-1.421-4.074-1.421
			c-0.787,0-1.512,0.111-2.172,0.335c-0.662,0.224-1.256,0.536-1.783,0.938c-0.527,0.402-0.97,0.871-1.327,1.407
			s-0.626,1.126-0.805,1.77c-0.304,0.823-0.702,1.367-1.192,1.635c-0.492,0.268-1.185,0.331-2.078,0.188l-3.485-0.617
			c0.269-1.858,0.786-3.489,1.555-4.893c0.769-1.403,1.729-2.574,2.883-3.512c1.152-0.938,2.475-1.644,3.968-2.118
			c1.492-0.473,3.096-0.71,4.812-0.71c1.787,0,3.4,0.254,4.839,0.764c1.438,0.51,2.668,1.216,3.687,2.118
			c1.019,0.903,1.801,1.962,2.346,3.177s0.817,2.529,0.817,3.941c0,1.233-0.138,2.319-0.415,3.257s-0.675,1.756-1.193,2.453
			c-0.518,0.697-1.162,1.287-1.93,1.77c-0.77,0.482-1.636,0.884-2.601,1.206c2.322,0.733,4.057,1.85,5.201,3.351
			c1.143,1.501,1.715,3.388,1.715,5.657C1447.9,796.223,1447.543,797.93,1446.828,799.413z M1480.153,795.017
			c0,0.357-0.117,0.666-0.349,0.925c-0.232,0.259-0.562,0.389-0.992,0.389h-3.539v9.464h-5.764v-9.464h-16.354
			c-0.447,0-0.84-0.139-1.18-0.416s-0.555-0.621-0.643-1.032l-0.698-3.351L1469,767h6.273v24.183h4.88V795.017z"/>

</g>
<g id="villa36">
	<polygon fill="rgba(187, 159, 121, 0.8)" points="1810.129,1175.936 1935.069,1136.187 1930.49,1084.38 2020.484,1055.573 2005.299,872.908 
		1996.702,868.777 1993.91,830.926 1918.098,796.983 1915.418,766.094 1842.767,737.957 1838.747,693.449 1708.786,642.828 
		1484.323,702.078 1620.429,753.997 1625.006,801.45 1700.707,832.154 1703.611,862.524 1776.633,894.234 1780.875,935.88 
		1787.797,938.784 	"/>

		<path fill="#FFFFFF" d="M1702.052,665.723c-29.614,0-53.62,24.006-53.62,53.62c0,29.615,24.006,53.62,53.62,53.62
			s53.62-24.005,53.62-53.62C1755.672,689.729,1731.666,665.723,1702.052,665.723z M1698.459,732.346
			c-0.715,1.484-1.68,2.73-2.895,3.74c-1.217,1.01-2.623,1.774-4.223,2.292c-1.601,0.519-3.294,0.778-5.08,0.778
			c-1.949,0-3.646-0.224-5.094-0.67c-1.449-0.447-2.709-1.108-3.781-1.984s-1.984-1.948-2.734-3.217
			c-0.751-1.269-1.395-2.735-1.932-4.397l2.923-1.207c0.769-0.322,1.489-0.406,2.158-0.254c0.671,0.152,1.157,0.514,1.462,1.085
			c0.321,0.626,0.674,1.243,1.059,1.85c0.385,0.608,0.846,1.148,1.381,1.622c0.536,0.474,1.166,0.858,1.891,1.153
			c0.723,0.295,1.584,0.442,2.586,0.442c1.127,0,2.109-0.183,2.949-0.549c0.84-0.367,1.542-0.845,2.105-1.435
			c0.563-0.59,0.982-1.246,1.26-1.97c0.277-0.724,0.416-1.452,0.416-2.185c0-0.929-0.1-1.773-0.295-2.534
			c-0.197-0.759-0.609-1.407-1.234-1.943s-1.524-0.957-2.693-1.26c-1.171-0.304-2.739-0.456-4.706-0.456v-4.719
			c1.627-0.018,2.977-0.17,4.048-0.456c1.073-0.286,1.927-0.684,2.562-1.193c0.634-0.509,1.077-1.122,1.327-1.836
			s0.375-1.501,0.375-2.359c0-1.824-0.51-3.208-1.527-4.156c-1.02-0.948-2.378-1.421-4.076-1.421c-0.787,0-1.512,0.111-2.171,0.335
			c-0.663,0.224-1.257,0.536-1.783,0.938c-0.527,0.402-0.97,0.871-1.327,1.407s-0.627,1.126-0.805,1.77
			c-0.304,0.823-0.701,1.367-1.193,1.635c-0.491,0.268-1.184,0.331-2.078,0.188l-3.484-0.617c0.269-1.858,0.787-3.489,1.555-4.893
			c0.77-1.403,1.73-2.574,2.883-3.512s2.475-1.644,3.967-2.118c1.493-0.473,3.098-0.71,4.813-0.71c1.786,0,3.4,0.254,4.838,0.764
			c1.439,0.51,2.669,1.216,3.687,2.118c1.02,0.903,1.802,1.962,2.347,3.177c0.544,1.215,0.817,2.529,0.817,3.941
			c0,1.233-0.138,2.319-0.415,3.257c-0.278,0.938-0.676,1.756-1.193,2.453c-0.518,0.697-1.163,1.287-1.93,1.77
			c-0.769,0.482-1.637,0.884-2.601,1.206c2.322,0.733,4.057,1.85,5.201,3.351c1.143,1.501,1.715,3.388,1.715,5.657
			C1699.531,729.156,1699.174,730.863,1698.459,732.346z M1730.39,731.207c-0.661,1.582-1.591,2.962-2.788,4.143
			c-1.198,1.18-2.642,2.109-4.33,2.788s-3.552,1.019-5.59,1.019c-2.073,0-3.934-0.331-5.576-0.992
			c-1.645-0.661-3.049-1.586-4.209-2.775c-1.163-1.188-2.052-2.618-2.668-4.29c-0.617-1.671-0.925-3.525-0.925-5.563
			c0-1.823,0.37-3.695,1.112-5.617c0.741-1.921,1.891-3.918,3.445-5.992l9.25-12.413c0.32-0.429,0.789-0.795,1.406-1.099
			c0.617-0.304,1.328-0.456,2.132-0.456h5.898l-11.501,14.076l-1.341,1.662c0.751-0.375,1.559-0.666,2.427-0.872
			c0.866-0.205,1.799-0.308,2.801-0.308c1.465,0,2.892,0.241,4.275,0.724c1.387,0.483,2.605,1.211,3.661,2.185
			c1.054,0.975,1.903,2.186,2.547,3.633c0.644,1.448,0.964,3.137,0.964,5.067C1731.381,727.932,1731.051,729.625,1730.39,731.207z"
			/>
		<path fill="#FFFFFF" d="M1722.803,721.368c-0.625-0.617-1.376-1.086-2.252-1.408c-0.877-0.322-1.842-0.483-2.896-0.483
			c-1.056,0-2.011,0.179-2.869,0.537s-1.591,0.854-2.198,1.488s-1.082,1.385-1.42,2.251c-0.341,0.867-0.51,1.801-0.51,2.802
			c0,1.073,0.146,2.051,0.441,2.936c0.295,0.885,0.732,1.64,1.313,2.265c0.581,0.626,1.302,1.112,2.158,1.461
			c0.858,0.349,1.85,0.523,2.977,0.523c1.054,0,2.024-0.179,2.908-0.537c0.886-0.357,1.645-0.858,2.28-1.501
			c0.633-0.644,1.13-1.398,1.486-2.266c0.358-0.867,0.537-1.81,0.537-2.829c0-1.108-0.171-2.104-0.51-2.989
			C1723.91,722.735,1723.428,721.984,1722.803,721.368z"/>

</g>
<g id="villa38">
	<polygon fill="rgba(187, 159, 121, 0.8)" points="1706.849,643.794 1836.479,694.374 1840.498,738.812 1913.185,767.06 1915.864,797.542 
		1991.9,831.819 1994.469,869.447 2003.066,873.801 2018.362,1056.466 2228.495,990.033 2216.994,813.173 2196.449,806.139 
		2194.775,770.968 2054.65,717.375 2048.732,636.984 1916.534,586.628 	"/>
		<path fill="#FFFFFF" d="M1929.853,654.246c0.447,0.563,1.036,1.015,1.771,1.354c0.731,0.34,1.635,0.51,2.707,0.51
			s1.975-0.17,2.708-0.51c0.732-0.339,1.322-0.791,1.769-1.354c0.447-0.563,0.766-1.207,0.952-1.931
			c0.188-0.724,0.282-1.47,0.282-2.238c0-0.733-0.117-1.43-0.349-2.092c-0.233-0.661-0.581-1.246-1.046-1.755
			c-0.465-0.51-1.055-0.916-1.77-1.22c-0.715-0.304-1.564-0.456-2.547-0.456s-1.832,0.152-2.547,0.456
			c-0.715,0.304-1.31,0.71-1.783,1.22c-0.474,0.509-0.822,1.095-1.045,1.755c-0.225,0.662-0.335,1.359-0.335,2.092
			c0,0.769,0.094,1.515,0.28,2.238C1929.089,653.039,1929.405,653.683,1929.853,654.246z"/>
		<path fill="#FFFFFF" d="M1934.33,661.31c-2.074,0-3.7,0.545-4.88,1.635c-1.179,1.09-1.769,2.699-1.769,4.826
			c0,0.894,0.143,1.725,0.429,2.494s0.711,1.43,1.273,1.984c0.563,0.554,1.255,0.987,2.077,1.3s1.779,0.469,2.869,0.469
			s2.047-0.156,2.869-0.469c0.821-0.313,1.515-0.747,2.077-1.3c0.563-0.554,0.987-1.215,1.274-1.984
			c0.285-0.769,0.428-1.6,0.428-2.494c0-2.126-0.59-3.735-1.77-4.826C1938.029,661.855,1936.402,661.31,1934.33,661.31z"/>
		<path fill="#FFFFFF" d="M1918.62,605.759c-29.614,0-53.62,24.006-53.62,53.62c0,29.615,24.006,53.62,53.62,53.62
			s53.62-24.005,53.62-53.62C1972.24,629.765,1948.234,605.759,1918.62,605.759z M1915.188,672.382
			c-0.715,1.484-1.68,2.73-2.895,3.74c-1.216,1.01-2.624,1.774-4.223,2.292c-1.6,0.519-3.294,0.778-5.081,0.778
			c-1.948,0-3.646-0.224-5.093-0.67c-1.449-0.447-2.709-1.108-3.781-1.984c-1.072-0.875-1.984-1.948-2.734-3.217
			c-0.751-1.269-1.395-2.734-1.931-4.397l2.922-1.207c0.769-0.321,1.488-0.406,2.159-0.254c0.67,0.152,1.156,0.514,1.461,1.086
			c0.322,0.625,0.674,1.242,1.059,1.85c0.385,0.608,0.846,1.148,1.381,1.622c0.537,0.474,1.166,0.858,1.891,1.153
			c0.724,0.295,1.585,0.442,2.587,0.442c1.126,0,2.108-0.183,2.948-0.549c0.841-0.367,1.543-0.845,2.105-1.435
			c0.563-0.59,0.982-1.247,1.26-1.971c0.277-0.724,0.416-1.452,0.416-2.185c0-0.93-0.099-1.774-0.295-2.534
			c-0.197-0.759-0.608-1.407-1.233-1.943c-0.626-0.536-1.524-0.956-2.694-1.26c-1.171-0.304-2.739-0.456-4.705-0.456v-4.719
			c1.626-0.018,2.976-0.17,4.048-0.456s1.926-0.684,2.561-1.193s1.076-1.122,1.327-1.836c0.25-0.715,0.375-1.501,0.375-2.359
			c0-1.824-0.51-3.208-1.527-4.156c-1.02-0.947-2.378-1.421-4.075-1.421c-0.787,0-1.512,0.112-2.172,0.335
			c-0.662,0.224-1.257,0.536-1.783,0.938c-0.527,0.402-0.97,0.871-1.327,1.407s-0.626,1.126-0.805,1.77
			c-0.303,0.822-0.701,1.367-1.192,1.635c-0.491,0.268-1.185,0.331-2.078,0.188l-3.485-0.617c0.269-1.858,0.787-3.489,1.555-4.893
			c0.77-1.403,1.729-2.574,2.883-3.512c1.152-0.938,2.475-1.644,3.968-2.118c1.492-0.473,3.097-0.71,4.812-0.71
			c1.787,0,3.4,0.255,4.839,0.764c1.438,0.51,2.668,1.216,3.687,2.118c1.019,0.903,1.8,1.962,2.346,3.177
			c0.545,1.215,0.817,2.529,0.817,3.941c0,1.233-0.139,2.319-0.415,3.257c-0.277,0.938-0.675,1.756-1.192,2.453
			c-0.52,0.697-1.163,1.287-1.931,1.77c-0.769,0.482-1.636,0.884-2.601,1.206c2.322,0.733,4.057,1.85,5.201,3.352
			c1.143,1.501,1.715,3.387,1.715,5.657C1916.26,669.192,1915.902,670.899,1915.188,672.382z M1946.811,672.543
			c-0.652,1.395-1.568,2.583-2.748,3.566c-1.18,0.983-2.597,1.743-4.25,2.279c-1.653,0.536-3.48,0.804-5.482,0.804
			s-3.829-0.268-5.482-0.804c-1.653-0.537-3.07-1.296-4.25-2.279c-1.179-0.982-2.096-2.171-2.748-3.566
			c-0.652-1.394-0.979-2.949-0.979-4.665c0-2.288,0.563-4.223,1.689-5.804c1.126-1.582,2.868-2.757,5.229-3.526
			c-1.877-0.786-3.285-1.903-4.223-3.351c-0.939-1.448-1.408-3.19-1.408-5.228c0-1.465,0.299-2.833,0.898-4.102
			c0.598-1.269,1.435-2.373,2.507-3.311c1.072-0.938,2.354-1.671,3.847-2.198c1.492-0.527,3.133-0.791,4.92-0.791
			s3.427,0.264,4.92,0.791c1.492,0.527,2.775,1.26,3.848,2.198c1.072,0.938,1.907,2.042,2.506,3.311
			c0.6,1.27,0.898,2.637,0.898,4.102c0,2.038-0.47,3.78-1.407,5.228c-0.938,1.448-2.346,2.565-4.223,3.351
			c2.358,0.769,4.102,1.944,5.228,3.526c1.127,1.582,1.689,3.517,1.689,5.804C1947.789,669.594,1947.462,671.149,1946.811,672.543z"
			/>
</g>
</svg>
