<svg version="1.1" xmlns="http://www.w3.org/2000/svg" xmlns:xlink="http://www.w3.org/1999/xlink" x="0px" y="0px"
	 viewBox="8 0 61.795 61.801" enable-background="new 8 0 61.795 61.801" xml:space="preserve">
<path d="M69.795,0H54.72c-0.771,0-1.511,0.307-2.057,0.852s-0.853,1.286-0.853,2.057s0.307,1.511,0.853,2.057
	c0.546,0.545,1.285,0.852,2.057,0.852h5.142l-14.708,14.71c-0.542,0.546-0.845,1.285-0.843,2.054
	c0.001,0.77,0.308,1.507,0.852,2.051s1.281,0.851,2.051,0.852c0.77,0.002,1.508-0.301,2.055-0.843L63.977,9.932v5.148
	c0,0.771,0.307,1.511,0.853,2.057c0.546,0.545,1.286,0.852,2.058,0.852s1.512-0.307,2.057-0.852
	c0.545-0.546,0.852-1.286,0.852-2.057V0z"/>
<path d="M32.643,37.153c-0.546-0.546-1.286-0.852-2.057-0.852s-1.512,0.306-2.057,0.852l-14.71,14.715v-5.147
	c0-0.772-0.307-1.512-0.852-2.058c-0.546-0.546-1.286-0.853-2.057-0.853s-1.512,0.307-2.057,0.853S8,45.948,8,46.721V61.8h15.074
	c0.771,0,1.512-0.307,2.057-0.853c0.545-0.545,0.852-1.285,0.852-2.057s-0.307-1.512-0.852-2.057
	c-0.545-0.546-1.286-0.853-2.057-0.853h-5.143l14.712-14.714c0.545-0.546,0.852-1.286,0.852-2.058
	C33.494,38.438,33.188,37.699,32.643,37.153z"/>
<path d="M51.811,58.893c0,0.771,0.307,1.512,0.853,2.057s1.285,0.852,2.057,0.852h15.074v-15.08c0-0.772-0.307-1.512-0.853-2.058
	c-0.545-0.546-1.285-0.853-2.057-0.853s-1.512,0.307-2.057,0.853c-0.547,0.546-0.853,1.285-0.853,2.058v5.146L49.268,37.153
	c-0.547-0.542-1.285-0.845-2.055-0.843c-0.77,0.002-1.507,0.308-2.051,0.852s-0.851,1.281-0.852,2.051
	c-0.002,0.769,0.301,1.508,0.843,2.055l14.712,14.715H54.72c-0.771,0-1.511,0.307-2.057,0.853S51.811,58.121,51.811,58.893z"/>
<path d="M32.643,20.528L17.932,5.818h5.142c0.771,0,1.512-0.307,2.057-0.852c0.545-0.546,0.852-1.286,0.852-2.057
	s-0.307-1.512-0.852-2.057S23.845,0,23.074,0H8v15.08c0,0.771,0.307,1.511,0.852,2.057c0.545,0.545,1.286,0.852,2.057,0.852
	s1.511-0.307,2.057-0.852c0.545-0.546,0.852-1.286,0.852-2.057V9.932l14.71,14.711c0.546,0.542,1.285,0.845,2.054,0.843
	c0.77-0.001,1.507-0.308,2.051-0.852s0.851-1.281,0.852-2.051C33.487,21.813,33.184,21.075,32.643,20.528z"/>
</svg>
