<svg version="1.1"  xmlns="http://www.w3.org/2000/svg" xmlns:xlink="http://www.w3.org/1999/xlink" x="0px" y="0px"
	 viewBox="8.004 0 79.994 80.002" enable-background="new 8.004 0 79.994 80.002"
	 xml:space="preserve">
<path d="M55.01,32.99h19.514c0.998,0,1.957-0.397,2.663-1.103c0.707-0.706,1.104-1.665,1.104-2.663s-0.397-1.956-1.104-2.663
	c-0.706-0.706-1.663-1.103-2.663-1.103h-6.656L86.906,6.417c0.702-0.707,1.095-1.663,1.092-2.659
	c-0.001-0.997-0.398-1.951-1.103-2.655S85.237,0.001,84.24,0c-0.996-0.002-1.952,0.39-2.66,1.091L62.541,20.133v-6.664
	c0-0.998-0.397-1.956-1.104-2.663c-0.707-0.706-1.666-1.103-2.664-1.103c-1,0-1.958,0.397-2.664,1.103
	c-0.705,0.707-1.102,1.665-1.102,2.663V32.99H55.01z"/>
<path d="M9.107,78.895c0.707,0.707,1.665,1.104,2.663,1.104c0.998,0,1.958-0.396,2.663-1.104l19.042-19.049v6.663
	c0,0.999,0.397,1.958,1.103,2.664c0.707,0.707,1.665,1.104,2.663,1.104s1.958-0.397,2.663-1.104
	c0.706-0.706,1.104-1.663,1.104-2.664V46.99H21.494c-0.998,0-1.958,0.396-2.663,1.104c-0.706,0.705-1.103,1.664-1.103,2.662
	c0,1,0.397,1.958,1.103,2.664s1.665,1.104,2.663,1.104h6.657L9.107,73.57c-0.706,0.707-1.103,1.664-1.103,2.664
	C8.005,77.23,8.401,78.188,9.107,78.895z"/>
<path d="M78.285,50.768c0-0.998-0.396-1.957-1.104-2.662s-1.664-1.104-2.663-1.104H55.006v19.521c0,0.999,0.397,1.957,1.104,2.664
	s1.664,1.104,2.664,1.104c0.998,0,1.957-0.396,2.662-1.104c0.708-0.707,1.104-1.664,1.104-2.664v-6.662L81.578,78.91
	c0.707,0.701,1.663,1.094,2.66,1.092c0.996-0.003,1.95-0.399,2.654-1.104s1.102-1.658,1.104-2.654s-0.391-1.953-1.092-2.66
	L67.859,54.535h6.66c0.998,0,1.957-0.397,2.663-1.104C77.89,52.725,78.285,51.768,78.285,50.768z"/>
<path d="M9.094,6.418L28.137,25.46h-6.656c-0.998,0-1.958,0.397-2.663,1.103c-0.706,0.707-1.103,1.665-1.103,2.663
	s0.397,1.957,1.103,2.663s1.665,1.103,2.663,1.103h19.513V13.471c0-0.998-0.397-1.956-1.103-2.663
	c-0.706-0.706-1.665-1.103-2.663-1.103s-1.956,0.397-2.663,1.103c-0.706,0.707-1.103,1.665-1.103,2.663v6.664L14.421,1.091
	C13.714,0.39,12.758-0.002,11.762,0c-0.997,0.001-1.951,0.399-2.655,1.103S8.006,2.761,8.004,3.758
	C8.002,4.755,8.395,5.71,9.094,6.418z"/>
</svg>
